<svg width="34" height="32" viewBox="0 0 34 32" fill="none" xmlns="http://www.w3.org/2000/svg">
<path d="M28.5031 2.97412H5.43241C2.98446 2.97412 1 4.71564 1 6.86392V27.1103C1 29.2586 2.98446 31.0001 5.43241 31.0001H28.5031C30.951 31.0001 32.9355 29.2586 32.9355 27.1103V6.86392C32.9355 4.71564 30.951 2.97412 28.5031 2.97412Z" stroke="#5F5F5F" stroke-width="2" stroke-miterlimit="10"/>
<path d="M18.5707 13.8945H15.0728C14.2976 13.8945 13.6692 14.446 13.6692 15.1263V18.196C13.6692 18.8763 14.2976 19.4278 15.0728 19.4278H18.5707C19.3459 19.4278 19.9743 18.8763 19.9743 18.196V15.1263C19.9743 14.446 19.3459 13.8945 18.5707 13.8945Z" stroke="#5F5F5F" stroke-width="1.5" stroke-miterlimit="10"/>
<path d="M9.28492 13.8945H5.78701C5.01183 13.8945 4.38342 14.446 4.38342 15.1263V18.196C4.38342 18.8763 5.01183 19.4278 5.78701 19.4278H9.28492C10.0601 19.4278 10.6885 18.8763 10.6885 18.196V15.1263C10.6885 14.446 10.0601 13.8945 9.28492 13.8945Z" stroke="#5F5F5F" stroke-width="1.5" stroke-miterlimit="10"/>
<path d="M27.8604 13.8945H24.3625C23.5873 13.8945 22.9589 14.446 22.9589 15.1263V18.196C22.9589 18.8763 23.5873 19.4278 24.3625 19.4278H27.8604C28.6355 19.4278 29.264 18.8763 29.264 18.196V15.1263C29.264 14.446 28.6355 13.8945 27.8604 13.8945Z" stroke="#5F5F5F" stroke-width="1.5" stroke-miterlimit="10"/>
<path d="M18.5707 22.4814H15.0728C14.2976 22.4814 13.6692 23.0329 13.6692 23.7132V26.7829C13.6692 27.4632 14.2976 28.0147 15.0728 28.0147H18.5707C19.3459 28.0147 19.9743 27.4632 19.9743 26.7829V23.7132C19.9743 23.0329 19.3459 22.4814 18.5707 22.4814Z" stroke="#5F5F5F" stroke-width="1.5" stroke-miterlimit="10"/>
<path d="M9.28492 22.4814H5.78701C5.01183 22.4814 4.38342 23.0329 4.38342 23.7132V26.7829C4.38342 27.4632 5.01183 28.0147 5.78701 28.0147H9.28492C10.0601 28.0147 10.6885 27.4632 10.6885 26.7829V23.7132C10.6885 23.0329 10.0601 22.4814 9.28492 22.4814Z" stroke="#5F5F5F" stroke-width="1.5" stroke-miterlimit="10"/>
<path d="M27.8604 22.4814H24.3625C23.5873 22.4814 22.9589 23.0329 22.9589 23.7132V26.7829C22.9589 27.4632 23.5873 28.0147 24.3625 28.0147H27.8604C28.6355 28.0147 29.264 27.4632 29.264 26.7829V23.7132C29.264 23.0329 28.6355 22.4814 27.8604 22.4814Z" stroke="#5F5F5F" stroke-width="1.5" stroke-miterlimit="10"/>
<path d="M1 9.40186H32.9318" stroke="#5F5F5F" stroke-width="2" stroke-miterlimit="10"/>
<path d="M10 1V5" stroke="#5F5F5F" stroke-width="2" stroke-miterlimit="10" stroke-linecap="round"/>
<path d="M24 1V5" stroke="#5F5F5F" stroke-width="2" stroke-miterlimit="10" stroke-linecap="round"/>
</svg>
