<svg width="36" height="32" viewBox="0 0 36 32" fill="none" xmlns="http://www.w3.org/2000/svg">
<path d="M29.5031 2.97412H6.43241C3.98446 2.97412 2 4.71564 2 6.86392V27.1103C2 29.2586 3.98446 31.0001 6.43241 31.0001H29.5031C31.951 31.0001 33.9355 29.2586 33.9355 27.1103V6.86392C33.9355 4.71564 31.951 2.97412 29.5031 2.97412Z" fill="#5F5F5F" stroke="#5F5F5F" stroke-width="2" stroke-miterlimit="10"/>
<path d="M19.5707 13.8945H16.0728C15.2976 13.8945 14.6692 14.446 14.6692 15.1263V18.196C14.6692 18.8763 15.2976 19.4278 16.0728 19.4278H19.5707C20.3459 19.4278 20.9743 18.8763 20.9743 18.196V15.1263C20.9743 14.446 20.3459 13.8945 19.5707 13.8945Z" fill="#5F5F5F" stroke="#D9D9D9" stroke-width="1.5" stroke-miterlimit="10"/>
<path d="M10.2849 13.8945H6.78701C6.01183 13.8945 5.38342 14.446 5.38342 15.1263V18.196C5.38342 18.8763 6.01183 19.4278 6.78701 19.4278H10.2849C11.0601 19.4278 11.6885 18.8763 11.6885 18.196V15.1263C11.6885 14.446 11.0601 13.8945 10.2849 13.8945Z" fill="#5F5F5F" stroke="#D9D9D9" stroke-width="1.5" stroke-miterlimit="10"/>
<path d="M28.8604 13.8945H25.3625C24.5873 13.8945 23.9589 14.446 23.9589 15.1263V18.196C23.9589 18.8763 24.5873 19.4278 25.3625 19.4278H28.8604C29.6355 19.4278 30.264 18.8763 30.264 18.196V15.1263C30.264 14.446 29.6355 13.8945 28.8604 13.8945Z" fill="#5F5F5F" stroke="#D9D9D9" stroke-width="1.5" stroke-miterlimit="10"/>
<path d="M19.5707 22.4814H16.0728C15.2976 22.4814 14.6692 23.0329 14.6692 23.7132V26.7829C14.6692 27.4632 15.2976 28.0147 16.0728 28.0147H19.5707C20.3459 28.0147 20.9743 27.4632 20.9743 26.7829V23.7132C20.9743 23.0329 20.3459 22.4814 19.5707 22.4814Z" fill="#5F5F5F" stroke="#D9D9D9" stroke-width="1.5" stroke-miterlimit="10"/>
<path d="M10.2849 22.4814H6.78701C6.01183 22.4814 5.38342 23.0329 5.38342 23.7132V26.7829C5.38342 27.4632 6.01183 28.0147 6.78701 28.0147H10.2849C11.0601 28.0147 11.6885 27.4632 11.6885 26.7829V23.7132C11.6885 23.0329 11.0601 22.4814 10.2849 22.4814Z" fill="#5F5F5F" stroke="#D9D9D9" stroke-width="1.5" stroke-miterlimit="10"/>
<path d="M28.8604 22.4814H25.3625C24.5873 22.4814 23.9589 23.0329 23.9589 23.7132V26.7829C23.9589 27.4632 24.5873 28.0147 25.3625 28.0147H28.8604C29.6355 28.0147 30.264 27.4632 30.264 26.7829V23.7132C30.264 23.0329 29.6355 22.4814 28.8604 22.4814Z" fill="#5F5F5F" stroke="#D9D9D9" stroke-width="1.5" stroke-miterlimit="10"/>
<path d="M1 8C0.447715 8 4.82823e-08 8.44772 0 9C-4.82823e-08 9.55228 0.447715 10 1 10L1 8ZM1 10L36 10L36 8L1 8L1 10Z" fill="#D9D9D9"/>
<path d="M11 1V5" stroke="#5F5F5F" stroke-width="2" stroke-miterlimit="10" stroke-linecap="round"/>
<path d="M25 1V5" stroke="#5F5F5F" stroke-width="2" stroke-miterlimit="10" stroke-linecap="round"/>
</svg>
