<svg width="34" height="32" viewBox="0 0 34 32" fill="none" xmlns="http://www.w3.org/2000/svg">
<path d="M28.5031 2.97412H5.43241C2.98446 2.97412 1 4.71564 1 6.86392V27.1103C1 29.2586 2.98446 31.0001 5.43241 31.0001H28.5031C30.951 31.0001 32.9355 29.2586 32.9355 27.1103V6.86392C32.9355 4.71564 30.951 2.97412 28.5031 2.97412Z" stroke="#5F5F5F" stroke-width="2" stroke-miterlimit="10"/>
<path d="M18.5709 13.8945H15.073C14.2978 13.8945 13.6694 14.446 13.6694 15.1263V18.196C13.6694 18.8763 14.2978 19.4278 15.073 19.4278H18.5709C19.3461 19.4278 19.9745 18.8763 19.9745 18.196V15.1263C19.9745 14.446 19.3461 13.8945 18.5709 13.8945Z" stroke="#5F5F5F" stroke-width="1.5" stroke-miterlimit="10"/>
<path d="M9.2848 13.8945H5.78689C5.01171 13.8945 4.3833 14.446 4.3833 15.1263V18.196C4.3833 18.8763 5.01171 19.4278 5.78689 19.4278H9.2848C10.06 19.4278 10.6884 18.8763 10.6884 18.196V15.1263C10.6884 14.446 10.06 13.8945 9.2848 13.8945Z" stroke="#5F5F5F" stroke-width="1.5" stroke-miterlimit="10"/>
<path d="M27.8605 13.8945H24.3626C23.5874 13.8945 22.959 14.446 22.959 15.1263V18.196C22.959 18.8763 23.5874 19.4278 24.3626 19.4278H27.8605C28.6357 19.4278 29.2641 18.8763 29.2641 18.196V15.1263C29.2641 14.446 28.6357 13.8945 27.8605 13.8945Z" stroke="#5F5F5F" stroke-width="1.5" stroke-miterlimit="10"/>
<path d="M18.5709 22.4814H15.073C14.2978 22.4814 13.6694 23.0329 13.6694 23.7132V26.7829C13.6694 27.4632 14.2978 28.0147 15.073 28.0147H18.5709C19.3461 28.0147 19.9745 27.4632 19.9745 26.7829V23.7132C19.9745 23.0329 19.3461 22.4814 18.5709 22.4814Z" stroke="#5F5F5F" stroke-width="1.5" stroke-miterlimit="10"/>
<path d="M9.2848 22.4814H5.78689C5.01171 22.4814 4.3833 23.0329 4.3833 23.7132V26.7829C4.3833 27.4632 5.01171 28.0147 5.78689 28.0147H9.2848C10.06 28.0147 10.6884 27.4632 10.6884 26.7829V23.7132C10.6884 23.0329 10.06 22.4814 9.2848 22.4814Z" stroke="#5F5F5F" stroke-width="1.5" stroke-miterlimit="10"/>
<path d="M27.8605 22.4814H24.3626C23.5874 22.4814 22.959 23.0329 22.959 23.7132V26.7829C22.959 27.4632 23.5874 28.0147 24.3626 28.0147H27.8605C28.6357 28.0147 29.2641 27.4632 29.2641 26.7829V23.7132C29.2641 23.0329 28.6357 22.4814 27.8605 22.4814Z" stroke="#5F5F5F" stroke-width="1.5" stroke-miterlimit="10"/>
<path d="M1 9.40186H32.9318" stroke="#5F5F5F" stroke-width="2" stroke-miterlimit="10"/>
<path d="M10 1V5" stroke="#5F5F5F" stroke-width="2" stroke-miterlimit="10" stroke-linecap="round"/>
<path d="M24 1V5" stroke="#5F5F5F" stroke-width="2" stroke-miterlimit="10" stroke-linecap="round"/>
</svg>
