<svg width="434" height="441" viewBox="0 0 434 441" fill="none" xmlns="http://www.w3.org/2000/svg">
<path d="M50.1247 66.0075H216.552H378.835C420.27 66.0075 427.406 101.458 425.794 115.73V182.026V407.155C425.794 434.779 404.156 441.224 393.337 440.994H50.1247C26.0663 440.994 13.1932 421.627 8.86855 409.81C8.22991 408.065 8 406.241 8 404.383V182.026V120.563C8 74.7089 36.0831 65.0868 50.1247 66.0075Z" fill="#623721"/>
<path d="M124.016 8V115.731M313.231 8V115.731M425.794 182.026H8M70.8418 273.874H130.231M70.8418 347.766H130.231M188.238 273.874H247.627M188.238 347.766H247.627M304.945 273.874H364.334M304.945 347.766H364.334" stroke="#899953" stroke-width="15" stroke-linecap="round" stroke-linejoin="round"/>
</svg>
