<svg width="434" height="449" viewBox="0 0 434 449" fill="none" xmlns="http://www.w3.org/2000/svg">
<path d="M124.016 8V115.731M313.231 8V115.731M425.794 182.026C425.794 273.749 425.794 384.553 425.794 407.156C425.794 434.779 404.156 441.224 393.337 440.994C289.752 440.994 76.0901 440.994 50.1247 440.994C26.0663 440.994 13.1932 421.627 8.86855 409.81C8.22991 408.065 8 406.241 8 404.383C8 345.937 8 249.959 8 182.026M425.794 182.026C425.794 161.651 425.794 131.714 425.794 115.731C427.406 101.458 420.27 66.0078 378.835 66.0078C337.401 66.0078 253.382 66.0078 216.552 66.0078H50.1247C36.0831 65.087 8 74.7091 8 120.564C8 131.532 8 160.327 8 182.026M425.794 182.026H8M70.8418 273.874H130.231M70.8418 347.766H130.231M188.238 273.874H247.627M188.238 347.766H247.627M304.945 273.874H364.334M304.945 347.766H364.334" stroke="#623721" stroke-width="15" stroke-linecap="round" stroke-linejoin="round"/>
</svg>
