<svg width="35" height="33" viewBox="0 0 35 33" fill="none" xmlns="http://www.w3.org/2000/svg">
<path d="M29.8034 2.89062H5.19663C2.8789 2.89062 1 4.47847 1 6.43719V15.598C1 17.5568 2.8789 19.1446 5.19663 19.1446H29.8034C32.1211 19.1446 34 17.5568 34 15.598V6.43719C34 4.47847 32.1211 2.89062 29.8034 2.89062Z" stroke="#5F5F5F" stroke-width="2" stroke-miterlimit="10"/>
<path d="M19.1764 19.1455V31.2804C19.1764 31.6763 18.797 32.0002 18.3247 32.0002H16.6639C16.1954 32.0002 15.8121 31.6763 15.8121 31.2804V19.1455" stroke="#5F5F5F" stroke-width="2" stroke-miterlimit="10"/>
<path d="M15.8121 2.89106V1.71978C15.8121 1.3239 16.1954 1 16.6639 1H18.3247C18.797 1 19.1764 1.3239 19.1764 1.71978V2.89106" stroke="#5F5F5F" stroke-width="2" stroke-miterlimit="10"/>
</svg>
