<svg width="28" height="17" viewBox="0 0 28 17" fill="none" xmlns="http://www.w3.org/2000/svg">
<mask id="path-1-inside-1_826_1632" fill="white">
<path fill-rule="evenodd" clip-rule="evenodd" d="M21.3657 16.0655C22.1159 15.1713 22.3515 13.9849 21.6618 12.7998C21.387 12.3276 21.0702 11.8843 20.7141 11.4773C20.682 11.4407 20.6497 11.4044 20.6171 11.3684C21.3256 11.0631 22.1019 10.9007 22.8959 10.9007C24.3496 10.9007 25.7438 11.4451 26.7717 12.4144C28.4211 13.9694 26.5395 16.0687 24.2727 16.0687H22.8959H21.5191C21.4677 16.0687 21.4166 16.0677 21.3657 16.0655ZM25.5583 7.29857C25.5583 8.76894 24.3664 9.96091 22.896 9.96091C21.4256 9.96091 20.2336 8.76894 20.2336 7.29857C20.2336 5.8282 21.4256 4.63623 22.896 4.63623C24.3664 4.63623 25.5583 5.8282 25.5583 7.29857Z"/>
</mask>
<path d="M21.6618 12.7998L20.3654 13.5543H20.3654L21.6618 12.7998ZM21.3657 16.0655L20.2165 15.1015L18.257 17.4372L21.3032 17.5642L21.3657 16.0655ZM20.7141 11.4773L19.5853 12.4651L19.5853 12.4651L20.7141 11.4773ZM20.6171 11.3684L20.0234 9.99093L18.096 10.8216L19.5061 12.3762L20.6171 11.3684ZM26.7717 12.4144L27.8008 11.323L27.8008 11.323L26.7717 12.4144ZM20.3654 13.5543C20.6969 14.1239 20.6139 14.6277 20.2165 15.1015L22.5148 17.0296C23.6178 15.7149 24.0062 13.8459 22.9582 12.0453L20.3654 13.5543ZM19.5853 12.4651C19.8761 12.7975 20.1373 13.1624 20.3654 13.5543L22.9582 12.0453C22.6367 11.4928 22.2642 10.971 21.843 10.4896L19.5853 12.4651ZM19.5061 12.3762C19.5327 12.4055 19.5591 12.4351 19.5853 12.4651L21.843 10.4896C21.805 10.4462 21.7667 10.4032 21.7281 10.3607L19.5061 12.3762ZM21.2108 12.746C21.7318 12.5214 22.306 12.4007 22.8959 12.4007V9.40066C21.8978 9.40066 20.9195 9.60475 20.0234 9.99093L21.2108 12.746ZM22.8959 12.4007C23.9793 12.4007 25.0019 12.8073 25.7427 13.5057L27.8008 11.323C26.4857 10.083 24.7199 9.40066 22.8959 9.40066V12.4007ZM25.7427 13.5057C25.8355 13.5932 25.8727 13.6552 25.8863 13.6827C25.8933 13.6969 25.8958 13.7054 25.8967 13.7086C25.8975 13.7119 25.8976 13.7133 25.8976 13.714C25.8976 13.7148 25.8978 13.7179 25.8968 13.7243C25.8958 13.7309 25.8934 13.7424 25.8876 13.7589C25.8758 13.7927 25.85 13.8468 25.7973 13.916C25.5597 14.2281 24.9829 14.5687 24.2727 14.5687V17.5687C25.8293 17.5687 27.3267 16.8597 28.1842 15.7334C28.6244 15.1552 28.9348 14.4083 28.8941 13.5688C28.8524 12.7084 28.4506 11.9357 27.8008 11.323L25.7427 13.5057ZM24.2727 14.5687H22.8959V17.5687H24.2727V14.5687ZM22.8959 14.5687H21.5191V17.5687H22.8959V14.5687ZM21.5191 14.5687C21.4888 14.5687 21.4584 14.5681 21.4282 14.5668L21.3032 17.5642C21.3747 17.5672 21.4467 17.5687 21.5191 17.5687V14.5687ZM22.896 11.4609C25.1948 11.4609 27.0583 9.59737 27.0583 7.29857H24.0583C24.0583 7.94052 23.5379 8.46091 22.896 8.46091V11.4609ZM18.7336 7.29857C18.7336 9.59737 20.5972 11.4609 22.896 11.4609V8.46091C22.254 8.46091 21.7336 7.94052 21.7336 7.29857H18.7336ZM22.896 3.13623C20.5972 3.13623 18.7336 4.99977 18.7336 7.29857H21.7336C21.7336 6.65663 22.254 6.13623 22.896 6.13623V3.13623ZM27.0583 7.29857C27.0583 4.99977 25.1948 3.13623 22.896 3.13623V6.13623C23.5379 6.13623 24.0583 6.65663 24.0583 7.29857H27.0583Z" fill="#585858" mask="url(#path-1-inside-1_826_1632)"/>
<mask id="path-3-inside-2_826_1632" fill="white">
<path fill-rule="evenodd" clip-rule="evenodd" d="M6.12504 16.0655C5.37486 15.1713 5.13921 13.9849 5.82894 12.7998C6.10374 12.3276 6.42055 11.8843 6.7766 11.4773C6.80866 11.4407 6.84097 11.4044 6.87354 11.3685C6.16498 11.0631 5.38867 10.9007 4.59459 10.9007C3.14087 10.9007 1.74668 11.4451 0.718737 12.4144C-0.930603 13.9694 0.950953 16.0687 3.21781 16.0687H4.59459H5.97138C6.02281 16.0687 6.07404 16.0676 6.12504 16.0655ZM1.93215 7.29857C1.93215 8.76894 3.12413 9.96091 4.59449 9.96091C6.06487 9.96091 7.25684 8.76894 7.25684 7.29857C7.25684 5.8282 6.06487 4.63623 4.59449 4.63623C3.12413 4.63623 1.93215 5.8282 1.93215 7.29857Z"/>
</mask>
<path d="M5.82894 12.7998L7.12536 13.5543L7.12536 13.5543L5.82894 12.7998ZM6.12504 16.0655L7.27421 15.1015L9.23354 17.437L6.18765 17.5642L6.12504 16.0655ZM6.7766 11.4773L7.90547 12.4651L7.90547 12.4651L6.7766 11.4773ZM6.87354 11.3685L7.46727 9.99103L9.39462 10.8217L7.98459 12.3763L6.87354 11.3685ZM0.718737 12.4144L-0.310283 11.323L-0.310282 11.323L0.718737 12.4144ZM7.12536 13.5543C6.79384 14.1239 6.8768 14.6277 7.27421 15.1015L4.97588 17.0296C3.87292 15.7149 3.48457 13.8459 4.53252 12.0453L7.12536 13.5543ZM7.90547 12.4651C7.61459 12.7975 7.35344 13.1624 7.12536 13.5543L4.53252 12.0453C4.85404 11.4928 5.22651 10.971 5.64774 10.4896L7.90547 12.4651ZM7.98459 12.3763C7.95803 12.4056 7.93165 12.4352 7.90547 12.4651L5.64773 10.4896C5.68566 10.4462 5.72392 10.4033 5.7625 10.3608L7.98459 12.3763ZM6.27982 12.746C5.75881 12.5215 5.18454 12.4007 4.59459 12.4007V9.40066C5.59281 9.40066 6.57115 9.60479 7.46727 9.99103L6.27982 12.746ZM4.59459 12.4007C3.51114 12.4007 2.48854 12.8073 1.74776 13.5057L-0.310282 11.323C1.00482 10.083 2.77059 9.40066 4.59459 9.40066V12.4007ZM1.74776 13.5057C1.65497 13.5932 1.6178 13.6552 1.60421 13.6827C1.59721 13.6969 1.59468 13.7054 1.59382 13.7086C1.59298 13.7119 1.5929 13.7133 1.59287 13.714C1.59283 13.7148 1.59272 13.7179 1.5937 13.7243C1.59471 13.7309 1.5971 13.7424 1.60288 13.7589C1.61468 13.7927 1.64047 13.8468 1.69316 13.916C1.93078 14.2281 2.50758 14.5687 3.21781 14.5687V17.5687C1.66118 17.5687 0.163774 16.8597 -0.69376 15.7334C-1.13391 15.1552 -1.44428 14.4083 -1.40362 13.5688C-1.36195 12.7084 -0.960111 11.9357 -0.310283 11.323L1.74776 13.5057ZM3.21781 14.5687H4.59459V17.5687H3.21781V14.5687ZM4.59459 14.5687H5.97138V17.5687H4.59459V14.5687ZM5.97138 14.5687C6.00178 14.5687 6.03214 14.5681 6.06244 14.5668L6.18765 17.5642C6.11595 17.5672 6.04384 17.5687 5.97138 17.5687V14.5687ZM4.59449 11.4609C2.2957 11.4609 0.432154 9.59737 0.432154 7.29857H3.43215C3.43215 7.94052 3.95255 8.46091 4.59449 8.46091V11.4609ZM8.75684 7.29857C8.75684 9.59737 6.89329 11.4609 4.59449 11.4609V8.46091C5.23644 8.46091 5.75684 7.94052 5.75684 7.29857H8.75684ZM4.59449 3.13623C6.89329 3.13623 8.75684 4.99977 8.75684 7.29857H5.75684C5.75684 6.65663 5.23644 6.13623 4.59449 6.13623V3.13623ZM0.432154 7.29857C0.432154 4.99977 2.2957 3.13623 4.59449 3.13623V6.13623C3.95255 6.13623 3.43215 6.65663 3.43215 7.29857H0.432154Z" fill="#585858" mask="url(#path-3-inside-2_826_1632)"/>
<mask id="path-5-inside-3_826_1632" fill="white">
<path fill-rule="evenodd" clip-rule="evenodd" d="M14.0044 7.91778C16.1908 7.91778 17.9633 6.14532 17.9633 3.95889C17.9633 1.77246 16.1908 0 14.0044 0C11.8179 0 10.0455 1.77246 10.0455 3.95889C10.0455 6.14532 11.8179 7.91778 14.0044 7.91778ZM20.2842 12.3765C22.0077 14.534 19.6856 16.9999 16.9242 16.9999H13.7735H10.6229C7.86145 16.9999 5.53936 14.534 7.26287 12.3765C7.4903 12.0918 7.73975 11.8208 8.01015 11.5658C9.5387 10.1246 11.6118 9.31495 13.7735 9.31495C15.9352 9.31495 18.0084 10.1246 19.5369 11.5658C19.8073 11.8208 20.0568 12.0918 20.2842 12.3765Z"/>
</mask>
<path d="M20.2842 12.3765L19.1122 13.3127L19.1122 13.3127L20.2842 12.3765ZM7.26287 12.3765L8.43484 13.3127H8.43484L7.26287 12.3765ZM8.01015 11.5658L6.98113 10.4744H6.98113L8.01015 11.5658ZM19.5369 11.5658L18.5079 12.6572L18.5079 12.6572L19.5369 11.5658ZM16.4633 3.95889C16.4633 5.3169 15.3624 6.41778 14.0044 6.41778V9.41778C17.0192 9.41778 19.4633 6.97375 19.4633 3.95889H16.4633ZM14.0044 1.5C15.3624 1.5 16.4633 2.60088 16.4633 3.95889H19.4633C19.4633 0.944028 17.0192 -1.5 14.0044 -1.5V1.5ZM11.5455 3.95889C11.5455 2.60088 12.6464 1.5 14.0044 1.5V-1.5C10.9895 -1.5 8.54548 0.944028 8.54548 3.95889H11.5455ZM14.0044 6.41778C12.6464 6.41778 11.5455 5.3169 11.5455 3.95889H8.54548C8.54548 6.97375 10.9895 9.41778 14.0044 9.41778V6.41778ZM16.9242 18.4999C18.7181 18.4999 20.4363 17.7082 21.4565 16.4354C21.9766 15.7865 22.3422 14.9735 22.3737 14.0609C22.4058 13.132 22.0866 12.2295 21.4562 11.4403L19.1122 13.3127C19.3435 13.6023 19.3804 13.8171 19.3755 13.9573C19.3701 14.1139 19.3058 14.3219 19.1156 14.5591C18.7153 15.0586 17.8917 15.4999 16.9242 15.4999V18.4999ZM13.7735 18.4999H16.9242V15.4999H13.7735V18.4999ZM10.6229 18.4999H13.7735V15.4999H10.6229V18.4999ZM6.09089 11.4403C5.46046 12.2295 5.14123 13.132 5.17333 14.0609C5.20487 14.9735 5.57051 15.7865 6.09059 16.4354C7.1108 17.7082 8.82896 18.4999 10.6229 18.4999V15.4999C9.65537 15.4999 8.83178 15.0586 8.43146 14.5591C8.24128 14.3219 8.17696 14.1139 8.17154 13.9573C8.1667 13.8171 8.20352 13.6023 8.43484 13.3127L6.09089 11.4403ZM6.98113 10.4744C6.65966 10.7775 6.36243 11.1004 6.09089 11.4403L8.43484 13.3127C8.61818 13.0832 8.81983 12.864 9.03917 12.6572L6.98113 10.4744ZM13.7735 7.81495C11.2416 7.81495 8.79684 8.76247 6.98113 10.4744L9.03917 12.6572C10.2806 11.4867 11.9821 10.815 13.7735 10.815V7.81495ZM20.5659 10.4744C18.7502 8.76247 16.3055 7.81495 13.7735 7.81495V10.815C15.5649 10.815 17.2665 11.4867 18.5079 12.6572L20.5659 10.4744ZM21.4562 11.4403C21.1846 11.1004 20.8874 10.7775 20.5659 10.4744L18.5079 12.6572C18.7272 12.864 18.9289 13.0832 19.1122 13.3127L21.4562 11.4403Z" fill="#585858" mask="url(#path-5-inside-3_826_1632)"/>
</svg>
