<svg width="48" height="45" viewBox="0 0 48 45" fill="none" xmlns="http://www.w3.org/2000/svg">
<ellipse cx="23.7318" cy="22.5" rx="23.3036" ry="22.5" fill="#585858"/>
<path fill-rule="evenodd" clip-rule="evenodd" d="M22.0502 39.4677C22.5638 39.5654 23.088 39.6179 23.6207 39.6224C23.7784 39.6237 23.9354 39.6208 24.0918 39.6137C24.1316 39.6143 24.1715 39.6148 24.2113 39.6151L24.2114 39.6075C30.6159 39.2302 35.7726 31.8796 35.8481 22.8225C35.9259 13.4885 30.5776 5.87675 23.9025 5.82111C23.2373 5.81556 22.5841 5.88525 21.9469 6.02448C20.5231 6.21427 19.1258 6.57307 17.7873 7.09495C15.6578 7.92528 13.7189 9.15216 12.0813 10.7056C10.4438 12.2589 9.1397 14.1084 8.24347 16.1484C7.34725 18.1884 6.87646 20.3789 6.85799 22.5948C6.83951 24.8108 7.27372 27.0089 8.13581 29.0635C8.9979 31.1181 10.271 32.9891 11.8824 34.5696C13.4938 36.1501 15.412 37.4091 17.5274 38.2748C18.9758 38.8676 20.4973 39.268 22.0502 39.4677Z" fill="#D9D9D9"/>
</svg>
