<svg width="38" height="35" viewBox="0 0 38 35" fill="none" xmlns="http://www.w3.org/2000/svg">
<path d="M18.6851 17.6636V33.9998" stroke="#5F5F5F" stroke-width="2" stroke-miterlimit="10"/>
<path d="M31.9714 16.7489V26.0535C31.9714 26.5294 31.706 26.9653 31.275 27.1983L19.3815 33.621C18.9472 33.8539 18.4197 33.8539 17.9888 33.621L6.09875 27.2016C5.66437 26.9687 5.39893 26.5261 5.39893 26.0469V16.7456" stroke="#5F5F5F" stroke-width="2" stroke-miterlimit="10"/>
<path d="M18.6852 3.54381L23.0772 1.09121C23.2874 0.974738 23.5494 0.968083 23.7632 1.08123L35.767 7.25433C36.2255 7.4906 36.2393 8.11623 35.7911 8.37247L13.9554 20.8351C13.5038 21.0947 12.9418 21.0914 12.4902 20.8285L1.36894 14.3459C0.869072 14.0564 0.87941 13.3542 1.38618 13.0747L18.6817 3.54381" stroke="#5F5F5F" stroke-width="2" stroke-miterlimit="10"/>
<path d="M18.4439 3.54381L14.0519 1.09121C13.8417 0.974738 13.5796 0.968083 13.3659 1.08123L1.3621 7.25433C0.903599 7.4906 0.889807 8.11623 1.33797 8.37247L23.1737 20.8351C23.6253 21.0947 24.1873 21.0914 24.6389 20.8285L35.7602 14.3459C36.26 14.0564 36.2497 13.3542 35.7429 13.0747L18.4474 3.54381" stroke="#5F5F5F" stroke-width="2" stroke-miterlimit="10"/>
<path d="M17.968 18.546L32.4574 10.2764" stroke="#5F5F5F" stroke-width="2" stroke-miterlimit="10"/>
<path d="M5.02319 11.0715L18.6852 3.54395" stroke="#5F5F5F" stroke-width="2" stroke-miterlimit="10"/>
</svg>
