<svg width="40" height="38" viewBox="0 0 40 38" fill="none" xmlns="http://www.w3.org/2000/svg">
<path d="M19.6851 18.6636V34.9998" stroke="#5F5F5F" stroke-width="2" stroke-miterlimit="10"/>
<path d="M32.9714 17.7489V27.0535C32.9714 27.5294 32.706 27.9653 32.275 28.1983L20.3815 34.621C19.9472 34.8539 19.4197 34.8539 18.9888 34.621L7.09875 28.2016C6.66437 27.9687 6.39893 27.5261 6.39893 27.0469V17.7456" fill="#5F5F5F"/>
<path d="M32.9714 17.7489V27.0535C32.9714 27.5294 32.706 27.9653 32.275 28.1983L20.3815 34.621C19.9472 34.8539 19.4197 34.8539 18.9888 34.621L7.09875 28.2016C6.66437 27.9687 6.39893 27.5261 6.39893 27.0469V17.7456" stroke="#5F5F5F" stroke-width="2" stroke-miterlimit="10"/>
<mask id="path-4-outside-1_796_1680" maskUnits="userSpaceOnUse" x="0" y="0" width="40" height="25" fill="black">
<rect fill="white" width="40" height="25"/>
<path d="M19.6852 4.54381L24.0772 2.09121C24.2874 1.97474 24.5494 1.96808 24.7632 2.08123L36.767 8.25433C37.2255 8.4906 37.2393 9.11623 36.7911 9.37247L14.9554 21.8351C14.5038 22.0947 13.9418 22.0914 13.4902 21.8285L2.36894 15.3459C1.86907 15.0564 1.87941 14.3542 2.38618 14.0747L19.6817 4.54381"/>
</mask>
<path d="M19.6852 4.54381L24.0772 2.09121C24.2874 1.97474 24.5494 1.96808 24.7632 2.08123L36.767 8.25433C37.2255 8.4906 37.2393 9.11623 36.7911 9.37247L14.9554 21.8351C14.5038 22.0947 13.9418 22.0914 13.4902 21.8285L2.36894 15.3459C1.86907 15.0564 1.87941 14.3542 2.38618 14.0747L19.6817 4.54381" fill="#5F5F5F"/>
<path d="M24.0772 2.09121L23.1081 0.341635L23.102 0.34503L24.0772 2.09121ZM24.7632 2.08123L23.8275 3.84884L23.838 3.85439L23.8485 3.85982L24.7632 2.08123ZM36.767 8.25433L37.6831 6.4765L37.6817 6.47573L36.767 8.25433ZM36.7911 9.37247L37.7825 11.1095L37.7839 11.1087L36.7911 9.37247ZM14.9554 21.8351L13.964 20.0981L13.9587 20.1011L14.9554 21.8351ZM13.4902 21.8285L12.483 23.5564L12.484 23.5569L13.4902 21.8285ZM2.36894 15.3459L3.37613 13.618L3.37133 13.6152L2.36894 15.3459ZM2.38618 14.0747L1.42092 12.323L1.42018 12.3234L2.38618 14.0747ZM20.6603 6.28999L25.0523 3.83739L23.102 0.34503L18.7101 2.79763L20.6603 6.28999ZM25.0462 3.84078C24.687 4.03974 24.2324 4.0632 23.8275 3.84884L25.6989 0.313619C24.8665 -0.127034 23.8879 -0.0902648 23.1081 0.341646L25.0462 3.84078ZM23.8485 3.85982L35.8523 10.0329L37.6817 6.47573L25.6778 0.302635L23.8485 3.85982ZM35.8509 10.0322C34.8992 9.54175 34.8698 8.16718 35.7984 7.63624L37.7839 11.1087C39.6088 10.0653 39.5518 7.43945 37.6831 6.4765L35.8509 10.0322ZM35.7998 7.63547L13.964 20.0981L15.9468 23.5721L37.7825 11.1095L35.7998 7.63547ZM13.9587 20.1011C14.1334 20.0008 14.3353 20.0062 14.4964 20.1L12.484 23.5569C13.5484 24.1765 14.8741 24.1887 15.952 23.5691L13.9587 20.1011ZM14.4974 20.1006L3.37613 13.618L1.36176 17.0738L12.483 23.5564L14.4974 20.1006ZM3.37133 13.6152C4.23421 14.115 4.19095 15.3632 3.35218 15.8259L1.42018 12.3234C-0.432134 13.3452 -0.496069 15.9978 1.36656 17.0766L3.37133 13.6152ZM3.35144 15.8263L20.647 6.29546L18.7165 2.79216L1.42092 12.323L3.35144 15.8263Z" fill="#D9D9D9" mask="url(#path-4-outside-1_796_1680)"/>
<mask id="path-6-outside-2_796_1680" maskUnits="userSpaceOnUse" x="0.0098877" y="0" width="40" height="25" fill="black">
<rect fill="white" x="0.0098877" width="40" height="25"/>
<path d="M19.4439 4.54381L15.0519 2.09121C14.8417 1.97474 14.5796 1.96808 14.3659 2.08123L2.3621 8.25433C1.9036 8.4906 1.88981 9.11623 2.33797 9.37247L24.1737 21.8351C24.6253 22.0947 25.1873 22.0914 25.6389 21.8285L36.7602 15.3459C37.26 15.0564 37.2497 14.3542 36.7429 14.0747L19.4474 4.54381"/>
</mask>
<path d="M19.4439 4.54381L15.0519 2.09121C14.8417 1.97474 14.5796 1.96808 14.3659 2.08123L2.3621 8.25433C1.9036 8.4906 1.88981 9.11623 2.33797 9.37247L24.1737 21.8351C24.6253 22.0947 25.1873 22.0914 25.6389 21.8285L36.7602 15.3459C37.26 15.0564 37.2497 14.3542 36.7429 14.0747L19.4474 4.54381" fill="#5F5F5F"/>
<path d="M15.0519 2.09121L16.0271 0.34502L16.021 0.341646L15.0519 2.09121ZM14.3659 2.08123L15.2806 3.85982L15.2911 3.85439L15.3016 3.84884L14.3659 2.08123ZM2.3621 8.25433L1.44744 6.47573L1.44596 6.4765L2.3621 8.25433ZM2.33797 9.37247L1.34525 11.1087L1.34658 11.1095L2.33797 9.37247ZM24.1737 21.8351L25.1704 20.1011L25.1651 20.0981L24.1737 21.8351ZM25.6389 21.8285L26.6451 23.5569L26.6461 23.5564L25.6389 21.8285ZM36.7602 15.3459L35.7578 13.6152L35.753 13.618L36.7602 15.3459ZM36.7429 14.0747L37.7089 12.3234L37.7082 12.323L36.7429 14.0747ZM20.419 2.79763L16.0271 0.34503L14.0768 3.83739L18.4688 6.28999L20.419 2.79763ZM16.021 0.341646C15.2412 -0.0902654 14.2626 -0.127034 13.4302 0.313619L15.3016 3.84884C14.8967 4.0632 14.4421 4.03974 14.0829 3.84078L16.021 0.341646ZM13.4512 0.302636L1.44744 6.47573L3.27676 10.0329L15.2806 3.85982L13.4512 0.302636ZM1.44596 6.4765C-0.422696 7.43945 -0.479682 10.0653 1.34525 11.1087L3.33068 7.63624C4.2593 8.16718 4.22989 9.54175 3.27825 10.0322L1.44596 6.4765ZM1.34658 11.1095L23.1823 23.5721L25.1651 20.0981L3.32935 7.63547L1.34658 11.1095ZM23.1771 23.5691C24.255 24.1887 25.5807 24.1765 26.6451 23.5569L24.6327 20.1C24.7938 20.0062 24.9957 20.0008 25.1704 20.1011L23.1771 23.5691ZM26.6461 23.5564L37.7673 17.0738L35.753 13.618L24.6317 20.1006L26.6461 23.5564ZM37.7625 17.0766C39.6252 15.9977 39.5612 13.3452 37.7089 12.3234L35.7769 15.8259C34.9382 15.3633 34.8948 14.115 35.7578 13.6152L37.7625 17.0766ZM37.7082 12.323L20.4126 2.79216L18.4821 6.29546L35.7777 15.8263L37.7082 12.323Z" fill="#D9D9D9" mask="url(#path-6-outside-2_796_1680)"/>
<path d="M18.968 19.546L33.4574 11.2764" stroke="#D9D9D9" stroke-width="2" stroke-miterlimit="10"/>
<path d="M6.02319 12.0715L20 4" stroke="#D9D9D9" stroke-width="2" stroke-miterlimit="10"/>
<path d="M19 21V37.3362" stroke="#D9D9D9" stroke-width="2" stroke-miterlimit="10"/>
</svg>
