<svg width="35" height="33" viewBox="0 0 35 33" fill="none" xmlns="http://www.w3.org/2000/svg">
<path d="M32.905 17.4731C32.6027 17.4731 32.3296 17.5934 32.1313 17.7834C31.9363 17.9766 31.8128 18.2458 31.8128 18.5372V29.8591C31.8128 31.0436 30.8278 32 29.6153 32H22.1194V26.9455C22.1194 25.0675 20.5428 23.5315 18.6152 23.5315H16.7526C14.825 23.5315 13.2484 25.0675 13.2484 26.9455V32H5.38186C4.16612 32 3.18443 31.0404 3.18443 29.8591V18.5372C3.18443 17.9481 2.69683 17.4731 2.09221 17.4731C1.43559 17.4731 1 16.9505 1 16.4026C1 16.1398 1.10077 15.8737 1.32181 15.6584L3.18443 13.8437L13.1769 4.10839L15.5628 1.78383C16.6356 0.738724 18.3681 0.738724 19.4409 1.78383L21.8268 4.10839L31.816 13.8437L33.6786 15.6584C34.3645 16.3266 33.8802 17.4731 32.9082 17.4731H32.905Z" stroke="#5F5F5F" stroke-width="2" stroke-miterlimit="10"/>
</svg>
