<svg width="360" height="415" viewBox="0 0 360 415" fill="none" xmlns="http://www.w3.org/2000/svg">
    <path d="M194.997 12.7378L344.781 131.736C349.557 135.531 352.34 141.297 352.34 147.396V387.226C352.34 398.271 343.386 407.226 332.34 407.226H241.285C230.24 407.226 221.285 398.271 221.285 387.225V297.666C221.285 286.62 212.331 277.666 201.285 277.666H159.055C148.009 277.666 139.055 286.62 139.055 297.666V387.226C139.055 398.271 130.101 407.226 119.055 407.226H28C16.9543 407.226 8 398.271 8 387.226V147.575C8 141.374 10.8765 135.524 15.7872 131.737L170.343 12.5592C177.625 6.94414 187.797 7.01783 194.997 12.7378Z" stroke="#623721" stroke-width="15" stroke-linejoin="round"/>
</svg>
