<svg width="345" height="400" viewBox="0 0 345 400" fill="none" xmlns="http://www.w3.org/2000/svg">
<path d="M186.997 4.73777L336.781 123.736C341.557 127.531 344.34 133.297 344.34 139.396V379.226C344.34 390.271 335.386 399.226 324.34 399.226H233.285C222.24 399.226 213.285 390.271 213.285 379.225V289.666C213.285 278.62 204.331 269.666 193.285 269.666H151.055C140.009 269.666 131.055 278.62 131.055 289.666V379.226C131.055 390.271 122.101 399.226 111.055 399.226H20C8.9543 399.226 0 390.271 0 379.226V139.575C0 133.374 2.87647 127.524 7.7872 123.737L162.343 4.55917C169.625 -1.05586 179.797 -0.982169 186.997 4.73777Z" fill="#623721"/>
</svg>