<svg width="24" height="24" viewBox="0 0 24 24" fill="none" xmlns="http://www.w3.org/2000/svg">
<path d="M11 4.12134H4C3.46957 4.12134 2.96086 4.33205 2.58579 4.70712C2.21071 5.0822 2 5.5909 2 6.12134V20.1213C2 20.6518 2.21071 21.1605 2.58579 21.5356C2.96086 21.9106 3.46957 22.1213 4 22.1213H18C18.5304 22.1213 19.0391 21.9106 19.4142 21.5356C19.7893 21.1605 20 20.6518 20 20.1213V13.1213" stroke="#5F5F5F" stroke-width="3" stroke-linecap="round" stroke-linejoin="round"/>
<path d="M18.5 2.62132C18.8978 2.2235 19.4374 2 20 2C20.5626 2 21.1022 2.2235 21.5 2.62132C21.8978 3.01915 22.1213 3.55871 22.1213 4.12132C22.1213 4.68393 21.8978 5.2235 21.5 5.62132L12 15.1213L8 16.1213L9 12.1213L18.5 2.62132Z" stroke="#5F5F5F" stroke-width="3" stroke-linecap="round" stroke-linejoin="round"/>
</svg>
