<svg width="47" height="45" viewBox="0 0 47 45" fill="none" xmlns="http://www.w3.org/2000/svg">
<ellipse cx="23.3036" cy="22.5" rx="23.3036" ry="22.5" fill="#585858"/>
<path fill-rule="evenodd" clip-rule="evenodd" d="M24.7771 41.576C25.7004 41.576 25.8926 40.1828 25.107 39.6978C19.9457 36.511 16.4103 30.0063 16.4103 22.5C16.4103 14.9937 19.9458 8.48904 25.107 5.30224C25.8927 4.81715 25.7005 3.42383 24.7771 3.42383V3.42383C12.8683 3.42383 3.21436 11.9645 3.21436 22.4999C3.21436 33.0353 12.8683 41.576 24.7771 41.576V41.576Z" fill="#CFCFCF"/>
<path d="M25.107 5.30224L24.0563 3.60049L25.107 5.30224ZM26.1578 37.996C21.6683 35.224 18.4103 29.4146 18.4103 22.5H14.4103C14.4103 30.5979 18.2232 37.7979 24.0563 41.3995L26.1578 37.996ZM18.4103 22.5C18.4103 15.5854 21.6683 9.77602 26.1578 7.00399L24.0563 3.60049C18.2232 7.20207 14.4103 14.4021 14.4103 22.5H18.4103ZM5.21436 22.4999C5.21436 13.2923 13.7355 5.42383 24.7771 5.42383V1.42383C12.0011 1.42383 1.21436 10.6366 1.21436 22.4999H5.21436ZM24.7771 39.576C13.7355 39.576 5.21436 31.7075 5.21436 22.4999H1.21436C1.21436 34.3632 12.0011 43.576 24.7771 43.576V39.576ZM26.1578 7.00399C27.383 6.24746 27.7211 4.88853 27.558 3.86595C27.3893 2.80886 26.516 1.42383 24.7771 1.42383V5.42383C24.4607 5.42383 24.1343 5.28754 23.901 5.04975C23.6966 4.84141 23.6287 4.62613 23.6079 4.4963C23.5753 4.29166 23.6167 3.87194 24.0563 3.60049L26.1578 7.00399ZM24.0563 41.3995C23.6166 41.128 23.5752 40.7083 23.6079 40.5036C23.6286 40.3737 23.6966 40.1584 23.901 39.9501C24.1343 39.7123 24.4607 39.576 24.7771 39.576V43.576C26.5159 43.576 27.3892 42.1911 27.5579 41.134C27.7211 40.1114 27.383 38.7525 26.1578 37.996L24.0563 41.3995Z" fill="#585858"/>
</svg>
