<svg width="48" height="45" viewBox="0 0 48 45" fill="none" xmlns="http://www.w3.org/2000/svg">
<ellipse cx="23.3036" cy="22.5" rx="23.3036" ry="22.5" transform="matrix(-1 0 0 1 47.3564 0)" fill="#585858"/>
<path fill-rule="evenodd" clip-rule="evenodd" d="M22.5793 41.576C21.656 41.576 21.4638 40.1828 22.2494 39.6978C27.4107 36.511 30.9461 30.0063 30.9461 22.5C30.9461 14.9937 27.4107 8.48904 22.2494 5.30224C21.4638 4.81715 21.656 3.42383 22.5793 3.42383C34.4881 3.42383 44.1421 11.9645 44.1421 22.4999C44.1421 33.0353 34.4881 41.576 22.5793 41.576Z" fill="#CFCFCF"/>
<path d="M22.2494 5.30224L23.3001 3.60049L22.2494 5.30224ZM21.1987 37.996C25.6882 35.224 28.9461 29.4146 28.9461 22.5H32.9461C32.9461 30.5979 29.1332 37.7979 23.3001 41.3995L21.1987 37.996ZM28.9461 22.5C28.9461 15.5854 25.6882 9.77602 21.1987 7.00399L23.3001 3.60049C29.1332 7.20207 32.9461 14.4021 32.9461 22.5H28.9461ZM42.1421 22.4999C42.1421 13.2923 33.6209 5.42383 22.5793 5.42383V1.42383C35.3553 1.42383 46.1421 10.6366 46.1421 22.4999H42.1421ZM22.5793 39.576C33.6209 39.576 42.1421 31.7075 42.1421 22.4999H46.1421C46.1421 34.3632 35.3553 43.576 22.5793 43.576V39.576ZM21.1987 7.00399C19.9734 6.24746 19.6353 4.88853 19.7985 3.86595C19.9672 2.80886 20.8405 1.42383 22.5793 1.42383V5.42383C22.8958 5.42383 23.2221 5.28754 23.4554 5.04975C23.6598 4.84141 23.7278 4.62613 23.7485 4.4963C23.7812 4.29166 23.7398 3.87194 23.3001 3.60049L21.1987 7.00399ZM23.3001 41.3995C23.7398 41.128 23.7812 40.7083 23.7485 40.5036C23.7278 40.3737 23.6598 40.1584 23.4554 39.9501C23.2221 39.7123 22.8958 39.576 22.5793 39.576V43.576C20.8405 43.576 19.9672 42.1911 19.7985 41.134C19.6353 40.1114 19.9734 38.7525 21.1987 37.996L23.3001 41.3995Z" fill="#585858"/>
</svg>
