<svg width="47" height="45" viewBox="0 0 47 45" fill="none" xmlns="http://www.w3.org/2000/svg">
<ellipse cx="23.3036" cy="22.5" rx="23.3036" ry="22.5" transform="matrix(-1 0 0 1 46.9282 0)" fill="#585858"/>
<path fill-rule="evenodd" clip-rule="evenodd" d="M25.3063 39.4677C24.7926 39.5654 24.2684 39.6179 23.7358 39.6224C23.578 39.6237 23.421 39.6208 23.2647 39.6137C23.2248 39.6143 23.185 39.6148 23.1451 39.6151L23.145 39.6075C16.7406 39.2302 11.5839 31.8796 11.5084 22.8225C11.4306 13.4885 16.7788 5.87675 23.454 5.82111C24.1191 5.81556 24.7724 5.88525 25.4095 6.02448C26.8334 6.21427 28.2307 6.57307 29.5691 7.09495C31.6987 7.92528 33.6376 9.15216 35.2751 10.7056C36.9126 12.2589 38.2167 14.1084 39.113 16.1484C40.0092 18.1884 40.48 20.3789 40.4985 22.5948C40.5169 24.8108 40.0827 27.0089 39.2206 29.0635C38.3585 31.1181 37.0855 32.9891 35.474 34.5696C33.8626 36.1501 31.9445 37.4091 29.8291 38.2748C28.3806 38.8676 26.8592 39.268 25.3063 39.4677Z" fill="#D9D9D9"/>
</svg>
