<svg width="30" height="12" viewBox="0 0 30 12" fill="none" xmlns="http://www.w3.org/2000/svg">
<path d="M23.4324 10.0762C23.4163 10.09 23.4078 10.0979 23.4078 10.0979M23.4324 10.0762C23.4171 10.0906 23.3914 10.1127 23.3914 10.1127M23.4324 10.0762C23.7478 9.81552 27.134 6.96477 28.8436 1.59553C28.8646 1.53131 28.8857 1.46422 28.9057 1.39713C28.9057 1.39713 29.0596 1.09808 28.6133 1.10675M23.4078 10.0979C22.7128 10.7284 21.8028 11.1071 20.8104 11.1072M23.4078 10.0979C23.4023 10.1028 23.3969 10.1077 23.3914 10.1127M20.8104 11.1072C19.4374 11.1073 18.3222 10.4183 17.4963 9.33339L17.4152 9.2185C16.6526 8.16808 16.4034 6.76808 16.8748 5.45201C17.2098 4.50873 17.8627 3.78845 18.6667 3.33013M20.8104 11.1072C21.795 11.1071 22.6985 10.7343 23.3914 10.1127M28.6133 1.10675C22.933 0.860042 19.0412 3.10601 18.6866 3.31882M28.6133 1.10675C23.0923 0.866959 19.2608 2.98203 18.7248 3.29622M28.6133 1.10675C24.3531 0.92172 21.0989 2.13884 19.5885 2.84873C19.1414 3.05882 18.8472 3.22447 18.7248 3.29622M18.6866 3.31882C18.6866 3.31882 18.7066 3.30588 18.7248 3.29622M18.6866 3.31882C18.6966 3.31285 18.7093 3.30528 18.7248 3.29622M18.6866 3.31882C18.68 3.32257 18.6733 3.32634 18.6667 3.33013M18.6866 3.31882C18.678 3.32338 18.6713 3.32728 18.6667 3.33013M18.6589 3.33511C18.6589 3.33511 18.6615 3.33327 18.6667 3.33013M6.53238 10.0763C6.54767 10.0907 6.57337 10.1127 6.57337 10.1127C7.26627 10.7343 8.16977 11.1071 9.15437 11.1072C10.5274 11.1074 11.6426 10.4183 12.4685 9.33343L12.5496 9.21854C13.3122 8.16812 13.5614 6.76812 13.09 5.45206C12.755 4.50877 12.1021 3.78849 11.2982 3.33017C11.2935 3.32733 11.2868 3.32342 11.2782 3.31886C11.2782 3.31886 11.2582 3.30592 11.2401 3.29626C11.1176 3.22451 10.8234 3.05886 10.3763 2.84877C8.86592 2.13888 5.61172 0.921762 1.35154 1.10679C0.905185 1.09813 1.05905 1.39717 1.05905 1.39717C1.07912 1.46426 1.10014 1.53135 1.12116 1.59557C2.83075 6.96481 6.21698 9.81556 6.53238 10.0763Z" stroke="#5F5F5F" stroke-width="1.5" stroke-linecap="round"/>
</svg>
