<svg width="383" height="403" viewBox="0 0 383 403" fill="none" xmlns="http://www.w3.org/2000/svg">
<path d="M180.013 7.15075L185.942 2.99695C188.726 1.04617 192.044 -0.000188176 195.444 2.53858e-08L197.986 0.000140746C205.726 0.000569235 212.001 6.27572 212.001 14.0164V26.2002C212.001 27.7463 210.748 28.9997 209.202 28.9997H191.501H174.685C172.699 28.9997 171.133 27.3074 171.288 25.3269L171.549 21.9763C172.013 16.0181 175.118 10.5798 180.013 7.15075Z" fill="#623721"/>
<path d="M173.739 383.817V277.838H212.1V383.817C212.1 394.41 203.513 402.997 192.92 402.997C182.327 402.997 173.739 394.41 173.739 383.817Z" fill="#623721"/>
<path d="M2.32783 179.763L0.334782 58.3279C0.151414 47.1553 9.158 37.9997 20.3321 37.9997H359.56C370.478 37.9997 379.378 46.7548 379.558 57.6708L382.667 246.671C382.851 257.844 373.844 267 362.669 267H22.5126C11.4669 267 2.51262 258.045 2.51262 247V236.468C2.51262 230.796 5.30725 225.488 9.98371 222.278L19.4731 215.763C29.2783 209.033 25.5064 193.745 13.6958 192.347C7.29114 191.589 2.43366 186.212 2.32783 179.763Z" fill="#623721"/>
</svg>
