<svg width="406" height="419" viewBox="0 0 406 419" fill="none" xmlns="http://www.w3.org/2000/svg">
<path d="M183.18 41.3109H28.3258C17.1537 41.3109 8.14788 50.4634 8.32837 61.6341L10.3704 188.016C10.4775 194.648 15.4656 200.18 22.0501 200.972V200.972C34.1478 202.427 38.0488 218.054 28.054 225.023L18.1964 231.897C13.4099 235.234 10.5574 240.701 10.5574 246.536V258.177C10.5574 269.222 19.5117 278.177 30.5574 278.177H185.738M183.18 41.3109L183.865 31.2372C184.244 25.6645 186.935 20.504 191.289 17.0046L197.948 11.6521C200.804 9.35675 204.365 8.1056 208.029 8.10583V8.10583C216.892 8.10639 224.098 15.2916 224.098 24.1548V24.1548V41.3109M183.18 41.3109H224.098M224.098 41.3109H374.485C385.405 41.3109 394.306 50.0691 394.483 60.9871L397.671 257.853C397.852 269.024 388.846 278.177 377.674 278.177H224.098M185.738 278.177V391.818C185.738 402.411 194.325 410.999 204.918 410.999V410.999C215.511 410.999 224.098 402.411 224.098 391.818V278.177M185.738 278.177H224.098" stroke="#623721" stroke-width="15" stroke-linecap="round" stroke-linejoin="round"/>
</svg>
